<svg width="25" height="20" viewBox="0 0 25 20" xmlns="http://www.w3.org/2000/svg">
<path d="M9.77441 13.4868C9.77441 14.5073 9.24219 16.1772 7.98242 16.1772C6.72266 16.1772 6.19043 14.5073 6.19043 13.4868C6.19043 12.4663 6.72266 10.7964 7.98242 10.7964C9.24219 10.7964 9.77441 12.4663 9.77441 13.4868ZM24.125 11.021C24.125 12.5786 23.9688 14.229 23.2705 15.6596C21.4199 19.3999 16.332 19.312 12.6895 19.312C8.98828 19.312 3.59766 19.4438 1.67383 15.6596C0.960938 14.2436 0.6875 12.5786 0.6875 11.021C0.6875 8.97507 1.36621 7.04147 2.71387 5.47409C2.45996 4.70261 2.33789 3.89206 2.33789 3.09128C2.33789 2.04147 2.57715 1.51413 3.05078 0.561981C5.2627 0.561981 6.67871 1.00143 8.36328 2.31979C9.7793 1.98288 11.2344 1.83151 12.6943 1.83151C14.0127 1.83151 15.3408 1.97311 16.6201 2.28073C18.2803 0.97702 19.6963 0.561981 21.8838 0.561981C22.3623 1.51413 22.5967 2.04147 22.5967 3.09128C22.5967 3.89206 22.4697 4.68796 22.2207 5.44479C23.5635 7.02683 24.125 8.97507 24.125 11.021ZM20.9854 13.4868C20.9854 11.3432 19.6816 9.45358 17.3965 9.45358C16.4736 9.45358 15.5898 9.6196 14.6621 9.74655C13.9346 9.85886 13.207 9.9028 12.46 9.9028C11.7178 9.9028 10.9902 9.85886 10.2578 9.74655C9.34473 9.6196 8.45117 9.45358 7.52344 9.45358C5.23828 9.45358 3.93457 11.3432 3.93457 13.4868C3.93457 17.7739 7.86035 18.4331 11.2783 18.4331H13.6318C17.0645 18.4331 20.9854 17.7788 20.9854 13.4868ZM16.9521 10.7964C15.6924 10.7964 15.1602 12.4663 15.1602 13.4868C15.1602 14.5073 15.6924 16.1772 16.9521 16.1772C18.2119 16.1772 18.7441 14.5073 18.7441 13.4868C18.7441 12.4663 18.2119 10.7964 16.9521 10.7964Z"/>
</svg>
