<svg width="22" height="22" viewBox="0 0 22 22" xmlns="http://www.w3.org/2000/svg">
<path d="M5.02148 21.8745H0.486328V7.27002H5.02148V21.8745ZM2.75146 5.27783C1.30127 5.27783 0.125 4.07666 0.125 2.62646C0.125 1.92988 0.401716 1.26183 0.894274 0.769274C1.38683 0.276716 2.05488 0 2.75146 0C3.44805 0 4.1161 0.276716 4.60866 0.769274C5.10121 1.26183 5.37793 1.92988 5.37793 2.62646C5.37793 4.07666 4.20117 5.27783 2.75146 5.27783ZM21.9951 21.8745H17.4697V14.7651C17.4697 13.0708 17.4355 10.8979 15.1118 10.8979C12.7539 10.8979 12.3926 12.7388 12.3926 14.6431V21.8745H7.86231V7.27002H12.2119V9.26221H12.2754C12.8809 8.11475 14.3599 6.90381 16.5664 6.90381C21.1562 6.90381 22 9.92627 22 13.8521V21.8745H21.9951Z" />
</svg>
